<?xml version="1.0" encoding="UTF-8"?>
<svg width="114px" height="62px" viewBox="0 0 114 62" version="1.1" xmlns="http://www.w3.org/2000/svg" xmlns:xlink="http://www.w3.org/1999/xlink">
    <title>路径</title>
    <defs>
        <rect id="path-1" x="-576" y="0" width="690" height="279" rx="8"></rect>
    </defs>
    <g id="页面-1" stroke="none" stroke-width="1" fill="none" fill-rule="evenodd">
        <g id="收藏图标">
            <mask id="mask-2" fill="white">
                <use xlink:href="#path-1"></use>
            </mask>
            <g id="蒙版"></g>
            <path d="M0,0 L133,0 L133,62 L61.8604651,62 C27.6964767,62 0,34.24105 0,0 Z" id="路径" fill="#FFBE00" fill-rule="nonzero" mask="url(#mask-2)"></path>
            <path d="M85.9415915,29.8073712 C86.9031777,28.8773395 87.2402855,27.5151166 86.8258087,26.2568385 C86.4113318,24.9930895 85.3281657,24.0904118 84.0018399,23.9044054 L74.645716,22.5585949 C74.5020307,22.5367117 74.3804509,22.4491794 74.3141346,22.3233516 L70.1362081,13.9311834 C69.5448878,12.7385545 68.3456681,12 67.0027632,12 C65.6653846,12 64.4606386,12.7385545 63.8693183,13.9311834 L59.6858654,22.3233516 C59.6250755,22.4491794 59.4979692,22.5367117 59.3542839,22.5585949 L49.9981601,23.9044054 C48.6718342,24.0904117 47.5886681,24.9930895 47.1741913,26.2568385 C46.7597145,27.5205874 47.0968223,28.8828103 48.0584085,29.8073712 L54.8226705,36.3449467 C54.9276713,36.4488914 54.9718821,36.5856608 54.9497767,36.7279009 L53.3526593,45.9516268 C53.1260786,47.259142 53.6621353,48.5557155 54.7453015,49.3380362 C55.3587272,49.7756982 56.0771537,50 56.7955802,50 C57.3537424,50 57.9119045,49.8687014 58.4258558,49.5951627 L66.7872352,45.2404261 C66.9143415,45.1747768 67.0690795,45.1747768 67.1961857,45.2404261 L75.5630914,49.5951627 C76.0715164,49.8632306 76.6186258,49.9945292 77.193367,49.9945292 C77.933899,49.9945292 78.6467991,49.7647567 79.2491721,49.3270947 C80.3323383,48.5502447 80.868395,47.2536712 80.6418143,45.9406853 L79.0391705,36.7169594 C79.017065,36.58019 79.0612759,36.4324791 79.1662767,36.3340052 L85.9415915,29.8073712 L85.9415915,29.8073712 Z M56.3700507,46.4604089 L57.9671681,37.236683 C58.1605907,36.1151742 57.7847983,34.9663115 56.961371,34.1730492 L50.1915826,27.6409444 C50.0313183,27.4877627 50.042371,27.3126979 50.0810555,27.1923409 C50.11974,27.0719839 50.2136881,26.9297437 50.4347424,26.8969191 L59.7908662,25.5511085 C60.9292959,25.3869853 61.9129876,24.6757846 62.4214125,23.6582205 L66.6048654,15.2715232 C66.7098662,15.0691045 66.8756569,15.0253383 67.0027632,15.0253383 C67.1298694,15.0253383 67.2956601,15.0691045 67.3951346,15.2660524 L71.5785875,23.6527498 C72.0870124,24.6757846 73.0707041,25.3869853 74.2091338,25.5511085 L83.5597312,26.8969191 C83.7863119,26.9297437 83.8747336,27.0774546 83.9134181,27.1923409 C83.9521026,27.3126979 83.9631553,27.4822919 83.8028909,27.6409444 L77.038629,34.1730492 C76.2152017,34.9717823 75.8394093,36.1151742 76.0328318,37.236683 L77.6299493,46.4604089 C77.6686338,46.6792398 77.5581066,46.8105384 77.4586322,46.8871293 C77.3536314,46.9582493 77.1878406,47.0238986 76.9944181,46.9199539 L68.6275124,42.5652174 C68.1246138,42.3026202 67.5609253,42.1658508 67.0027632,42.1658508 C66.444601,42.1658508 65.8753862,42.3026202 65.378014,42.5652174 L57.0111082,46.9199539 C56.8121594,47.0238986 56.6463686,46.9582493 56.5468941,46.8871293 C56.4418934,46.8160092 56.3313662,46.6792398 56.3700507,46.4604089 Z" id="形状" fill="#FFFFFF" fill-rule="nonzero" mask="url(#mask-2)"></path>
        </g>
    </g>
</svg>