<?xml version="1.0" encoding="UTF-8"?>
<svg width="28px" height="28px" viewBox="0 0 28 28" version="1.1" xmlns="http://www.w3.org/2000/svg" xmlns:xlink="http://www.w3.org/1999/xlink">
    <title>Outlined/UI/time</title>
    <defs>
        <rect id="path-1" x="0" y="0" width="690" height="276" rx="8"></rect>
        <filter x="-3.6%" y="-7.2%" width="107.2%" height="118.1%" filterUnits="objectBoundingBox" id="filter-2">
            <feOffset dx="0" dy="5" in="SourceAlpha" result="shadowOffsetOuter1"></feOffset>
            <feGaussianBlur stdDeviation="7.5" in="shadowOffsetOuter1" result="shadowBlurOuter1"></feGaussianBlur>
            <feColorMatrix values="0 0 0 0 0.882352941   0 0 0 0 0.901960784   0 0 0 0 0.933333333  0 0 0 1 0" type="matrix" in="shadowBlurOuter1"></feColorMatrix>
        </filter>
        <filter id="filter-3">
            <feColorMatrix in="SourceGraphic" type="matrix" values="0 0 0 0 0.778911 0 0 0 0 0.793507 0 0 0 0 0.816859 0 0 0 1.000000 0"></feColorMatrix>
        </filter>
    </defs>
    <g id="页面-1" stroke="none" stroke-width="1" fill="none" fill-rule="evenodd">
        <g id="超级管理员-首页" transform="translate(-62.000000, -1200.000000)">
            <rect id="矩形" fill="#FFFFFF" x="0" y="0" width="750" height="1630"></rect>
            <g id="编组备份-5" transform="translate(30.000000, 1096.000000)">
                <g id="矩形备份-8">
                    <use fill="black" fill-opacity="1" filter="url(#filter-2)" xlink:href="#path-1"></use>
                    <use fill="#FFFFFF" fill-rule="evenodd" xlink:href="#path-1"></use>
                </g>
                <g id="编组-3" transform="translate(30.000000, 98.000000)">
                    <g id="Outlined/UI/time" transform="translate(0.000000, 4.000000)" filter="url(#filter-3)">
                        <g>
                            <path d="M16,1.99999996 C19.7130309,1.99999996 23.2739857,3.47499573 25.899495,6.10050503 C28.5250043,8.72601434 30,12.2869691 30,16 C30,23.7319865 23.7319865,30 16,30 C8.26801348,30 1.99999996,23.7319865 1.99999996,16 C1.99999996,8.26801348 8.26801348,1.99999996 16,1.99999996 Z M16,3.99999996 C9.37258298,3.99999996 3.99999996,9.37258298 3.99999996,16 C3.99999996,22.627417 9.37258298,28 16,28 C19.1825979,28 22.2348449,26.7357179 24.4852814,24.4852814 C26.7357179,22.2348449 28,19.1825979 28,16 C28,9.37258298 22.627417,3.99999996 16,3.99999996 Z M17,6.99999997 L17,15.52 L21.62,19.22 L20.38,20.78 L15.75,17.08 C15.2762735,16.7007154 15.0003792,16.1268554 15,15.52 L15,15.52 L15,6.99999997 L17,6.99999997 Z" id="Style" fill="#252C32"></path>
                        </g>
                    </g>
                </g>
            </g>
        </g>
    </g>
</svg>