<?xml version="1.0" encoding="UTF-8"?>
<svg width="30px" height="29px" viewBox="0 0 30 29" version="1.1" xmlns="http://www.w3.org/2000/svg" xmlns:xlink="http://www.w3.org/1999/xlink">
    <title>Style</title>
    <g id="控件" stroke="none" stroke-width="1" fill="none" fill-rule="evenodd" opacity="0.5">
        <g id="小程序icon" transform="translate(-227.000000, -898.000000)" fill="#C7CAD0">
            <path d="M255.133829,904.04803 L250.963539,899.859716 C249.812665,898.713428 247.953959,898.713428 246.803085,899.859716 L240.665677,905.950017 C240.1101,906.504753 239.797818,907.258294 239.797818,908.044174 C239.797818,908.830054 240.1101,909.583596 240.665677,910.138331 L242.082002,911.567286 L240.567321,913.084933 L239.170667,911.685544 C238.018654,910.532709 236.152391,910.532709 235.000377,911.685544 L228.872805,917.76599 C228.314205,918.321114 228,919.076772 228,919.865075 C228,920.653377 228.314205,921.409035 228.872805,921.964159 L233.03326,926.142618 C233.587695,926.693607 234.337509,927.001917 235.118405,927 C235.894495,927.001939 236.640104,926.697446 237.193714,926.152473 L243.321286,920.052317 C243.882025,919.501649 244.200598,918.749765 244.206489,917.963087 C244.208414,917.175836 243.896889,916.420327 243.340957,915.864003 L242.003317,914.474468 L243.517998,912.95682 L244.885145,914.31679 C246.036019,915.463079 247.894725,915.463079 249.045599,914.31679 L255.173171,908.226489 C255.71788,907.669811 256.015707,906.916678 255.999361,906.13726 C255.998672,905.353423 255.687346,904.601941 255.133829,904.04803 Z M241.944304,917.263393 C242.132021,917.447749 242.23828,917.69972 242.239371,917.963087 C242.235676,918.223028 242.12962,918.470977 241.944304,918.652927 L235.816731,924.753083 C235.433107,925.135179 234.813538,925.135179 234.429913,924.753083 L230.259623,920.564769 C230.071906,920.380413 229.965647,920.128442 229.964556,919.865075 C229.965647,919.601708 230.071906,919.349736 230.259623,919.16538 L236.387196,913.035659 C236.77082,912.653563 237.390389,912.653563 237.774014,913.035659 L239.170667,914.435049 L236.387196,917.223973 L237.783849,918.623363 L240.567321,915.834438 L241.944304,917.263393 Z M253.747011,906.836954 L247.609603,912.927256 C247.225978,913.309352 246.60641,913.309352 246.222785,912.927256 L244.865474,911.567286 L247.619439,908.807926 L246.222785,907.408536 L243.46882,910.167896 L242.052495,908.748797 C241.866295,908.563755 241.76156,908.311869 241.76156,908.049102 C241.76156,907.786334 241.866295,907.534448 242.052495,907.349407 L248.180067,901.259106 C248.368087,901.072191 248.623399,900.969155 248.88823,900.973194 C249.149663,900.9718 249.400941,901.074636 249.586557,901.259106 L253.756847,905.437565 C253.943047,905.622606 254.047782,905.874492 254.047782,906.13726 C254.047782,906.400027 253.943047,906.651913 253.756847,906.836954 L253.747011,906.836954 Z" id="Style"></path>
        </g>
    </g>
</svg>