<?xml version="1.0" encoding="UTF-8"?>
<svg width="45px" height="38px" viewBox="0 0 45 38" version="1.1" xmlns="http://www.w3.org/2000/svg" xmlns:xlink="http://www.w3.org/1999/xlink">
    <title>编组 7</title>
    <defs>
        <filter id="filter-1">
            <feColorMatrix in="SourceGraphic" type="matrix" values="0 0 0 0 1.000000 0 0 0 0 1.000000 0 0 0 0 1.000000 0 0 0 1.000000 0"></feColorMatrix>
        </filter>
        <polygon id="path-2" points="0.00315018315 0.042002442 42.9892237 0.042002442 42.9892237 43.0524505 0.00315018315 43.0524505"></polygon>
        <rect id="path-4" x="0" y="0" width="690" height="108" rx="8"></rect>
        <filter x="-3.6%" y="-18.5%" width="107.2%" height="146.3%" filterUnits="objectBoundingBox" id="filter-5">
            <feOffset dx="0" dy="5" in="SourceAlpha" result="shadowOffsetOuter1"></feOffset>
            <feGaussianBlur stdDeviation="7.5" in="shadowOffsetOuter1" result="shadowBlurOuter1"></feGaussianBlur>
            <feColorMatrix values="0 0 0 0 0.882352941   0 0 0 0 0.901960784   0 0 0 0 0.933333333  0 0 0 1 0" type="matrix" in="shadowBlurOuter1"></feColorMatrix>
        </filter>
    </defs>
    <g id="页面-1" stroke="none" stroke-width="1" fill="none" fill-rule="evenodd">
        <g id="超级管理员-首页" transform="translate(-270.000000, -745.000000)">
            <rect id="矩形" fill="#FFFFFF" x="0" y="0" width="750" height="1630"></rect>
            <g id="chakan" transform="translate(272.000000, 739.000000)" filter="url(#filter-1)">
                <g transform="translate(0.000000, 3.000000)">
                    <mask id="mask-3" fill="white">
                        <use xlink:href="#path-2"></use>
                    </mask>
                    <g id="Clip-2"></g>
                    <path d="M42.4604261,42.5223272 C42.1185263,42.8643846 41.6642698,43.0524505 41.1810317,43.0524505 C40.6976361,43.0524505 40.2433797,42.8643846 39.9016899,42.5224847 L34.1720842,36.790254 C32.2801368,38.2648547 29.954619,39.0681514 27.5353834,39.0681514 C24.6479255,39.0681514 21.9333602,37.9432735 19.891464,35.9005372 C17.8498303,33.8578535 16.7253199,31.1416606 16.7253199,28.2529426 C16.7253199,25.3638571 17.8496203,22.6480317 19.891464,20.605348 C21.9331502,18.5622442 24.6477155,17.4375238 27.5353834,17.4375238 C30.4228413,17.4375238 33.1374066,18.5622442 35.1793028,20.605348 C37.220989,22.6480317 38.3454994,25.3638571 38.3454994,28.2529426 C38.3454994,30.3594176 37.7507448,32.3715971 36.6190415,34.1183211 L42.4604261,39.9628034 C43.1654896,40.6682869 43.1654896,41.8163712 42.4604261,42.5223272 Z M27.5353834,35.4481184 C29.4562601,35.4481184 31.2623126,34.6997399 32.620619,33.3406459 C33.9789255,31.9817094 34.727094,30.1748694 34.727094,28.2529426 C34.727094,26.3308584 33.9789255,24.5240183 32.620619,23.1650818 C31.2623126,21.8061453 29.4562601,21.0575568 27.5353834,21.0575568 C25.6142967,21.0575568 23.8082967,21.8061453 22.4499902,23.1650818 C21.0916838,24.5242283 20.3437253,26.3308584 20.3437253,28.2529426 C20.3437253,30.1748694 21.0916838,31.9817094 22.4499902,33.3406459 C23.8085067,34.6997399 25.6142967,35.4481184 27.5353834,35.4481184 Z M32.1617949,3.66203541 L3.61840537,3.66203541 L3.61840537,36.5191282 L14.6739731,36.5191282 L14.6739731,40.1391612 L3.34008669,40.1391612 C1.49838462,40.1391612 0,38.6401465 0,36.7973944 L0,3.38355922 C0,1.54101709 1.49838462,0.042002442 3.34008669,0.042002442 L32.4401136,0.042002442 C34.2818156,0.042002442 35.7799902,1.54101709 35.7799902,3.38355922 L35.7799902,15.9668083 L32.1617949,15.9668083 L32.1617949,3.66203541 Z M13.0859658,31.2858339 L8.703221,31.2858339 C7.705663,31.2858339 6.89412332,30.4736642 6.89412332,29.4756862 C6.89412332,28.4775507 7.705663,27.665591 8.703221,27.665591 L13.0859658,27.665591 C14.0835238,27.665591 14.8952735,28.4775507 14.8952735,29.4756862 C14.8952735,30.4736642 14.0837338,31.2858339 13.0859658,31.2858339 Z M6.89412332,11.2327656 C6.89412332,10.2347875 7.705663,9.42261783 8.703221,9.42261783 L24.9930806,9.42261783 C25.9906386,9.42261783 26.8021783,10.2347875 26.8021783,11.2327656 C26.8021783,12.2309011 25.9906386,13.0428608 24.9930806,13.0428608 L8.703221,13.0428608 C7.705663,13.0428608 6.89412332,12.2309011 6.89412332,11.2327656 Z M6.89412332,20.6535458 C6.89412332,19.6553578 7.705663,18.8434505 8.703221,18.8434505 L15.1210891,18.8434505 C16.1184371,18.8434505 16.9299768,19.6551477 16.9301868,20.6533358 C16.9301868,21.6515238 16.1186471,22.4636935 15.1210891,22.4636935 L8.703221,22.4636935 C7.705663,22.4636935 6.89412332,21.6515238 6.89412332,20.6535458 Z" id="Fill-1" fill="#797979" mask="url(#mask-3)"></path>
                </g>
            </g>
            <g id="矩形备份-3" transform="translate(30.000000, 710.000000)">
                <use fill="black" fill-opacity="1" filter="url(#filter-5)" xlink:href="#path-4"></use>
                <use fill="#FFFFFF" fill-rule="evenodd" xlink:href="#path-4"></use>
            </g>
            <g id="编组-12" transform="translate(271.000000, 739.000000)">
                <g id="编组-7" transform="translate(0.000000, 7.000000)">
                    <path d="M43.291475,17.4851276 C40.025115,7.03531619 31.3490374,7.10542736e-15 21.6973784,7.10542736e-15 C15.3895607,0.11995309 9.44954082,2.99279387 5.43893189,7.86292106 C3.03161389,10.674396 1.22588724,13.9490916 0.133051872,17.4851276 L-1.77635684e-14,17.928581 L0.133051872,18.3720343 C3.3699594,28.8216076 12.016267,35.842396 21.6973784,35.842396 C25.3398719,35.8246928 28.9116319,34.8348218 32.0436698,32.9748742 C37.4788705,29.6691385 41.4888444,24.4581254 43.291475,18.357189 L43.4244475,17.9137357 L43.291475,17.4851276 Z M32.0436698,29.4570176 C29.0403175,31.6578512 25.4204493,32.8576202 21.6973784,32.88612 C13.4942066,32.88612 6.10411186,26.8707623 3.05947857,17.928581 C4.3237889,13.9775913 6.61361479,10.4328227 9.69571854,7.65611908 C12.9793848,4.65649797 17.250461,2.96826342 21.6973784,2.91181958 C29.9153956,2.91181958 37.3498674,8.91264953 40.3355165,17.8693586 C38.8725016,22.5187912 35.9686207,26.5820334 32.0436698,29.4719423 L32.0436698,29.4570176 Z" id="Fill-4" stroke="#333333" fill="#333333"></path>
                    <path d="M11,18.0001758 C11,23.5228118 15.4771882,28 20.9998242,28 C26.5228118,28 31,23.5228118 31,18.0001758 C31,12.4771882 26.5228118,8 20.9998242,8 C15.4771882,8 11,12.4771882 11,18.0001758 Z" id="Fill-1" fill="#7FA3FF"></path>
                    <path d="M23,12.6667487 C23,15.2439788 25.0893545,17.3333333 27.6665846,17.3333333 C30.2439788,17.3333333 32.3333333,15.2439788 32.3333333,12.6667487 C32.3333333,10.0893545 30.2439788,8 27.6665846,8 C25.0893545,8 23,10.0893545 23,12.6667487 Z" id="Fill-1备份" fill="#3065EA"></path>
                </g>
            </g>
        </g>
    </g>
</svg>