<?xml version="1.0" encoding="UTF-8"?>
<svg width="46px" height="44px" viewBox="0 0 46 44" version="1.1" xmlns="http://www.w3.org/2000/svg" xmlns:xlink="http://www.w3.org/1999/xlink">
    <title>编组 8</title>
    <defs>
        <rect id="path-1" x="0" y="0" width="330" height="108" rx="8"></rect>
        <filter x="-7.6%" y="-18.5%" width="115.2%" height="146.3%" filterUnits="objectBoundingBox" id="filter-2">
            <feOffset dx="0" dy="5" in="SourceAlpha" result="shadowOffsetOuter1"></feOffset>
            <feGaussianBlur stdDeviation="7.5" in="shadowOffsetOuter1" result="shadowBlurOuter1"></feGaussianBlur>
            <feColorMatrix values="0 0 0 0 0.882352941   0 0 0 0 0.901960784   0 0 0 0 0.933333333  0 0 0 1 0" type="matrix" in="shadowBlurOuter1"></feColorMatrix>
        </filter>
    </defs>
    <g id="页面-1" stroke="none" stroke-width="1" fill="none" fill-rule="evenodd">
        <g id="超级管理员-首页" transform="translate(-90.000000, -880.000000)">
            <rect id="矩形" fill="#FFFFFF" x="0" y="0" width="750" height="1630"></rect>
            <g id="矩形备份-3" transform="translate(30.000000, 848.000000)">
                <use fill="black" fill-opacity="1" filter="url(#filter-2)" xlink:href="#path-1"></use>
                <use fill="#FFFFFF" fill-rule="evenodd" xlink:href="#path-1"></use>
            </g>
            <g id="编组-13" transform="translate(91.000000, 877.000000)">
                <g id="编组-8" transform="translate(0.000000, 4.000000)">
                    <g id="编组">
                        <path d="M24,31.0001758 C24,36.5228118 28.4771882,41 33.9998242,41 C39.5228118,41 44,36.5228118 44,31.0001758 C44,25.4771882 39.5228118,21 33.9998242,21 C28.4771882,21 24,25.4771882 24,31.0001758 Z" id="Fill-1" fill="#7FA3FF"></path>
                        <path d="M41.4084629,10.7822887 C37.6048375,3.88115475 30.2330351,-0.283453836 22.3589233,0.0209986996 C14.4846398,0.325394018 7.45631209,5.04672562 4.1969935,12.2209571 L2.47841873,8.67309233 C2.167329,8.02402081 1.38906112,7.75023667 0.740275683,8.06109753 C0.0912041612,8.37224447 -0.182808843,9.15022627 0.128280884,9.79929779 L3.26607022,16.2377737 C3.41758127,16.5489207 3.68673082,16.787173 4.01412744,16.8993758 C4.34158127,17.0118075 4.70010403,16.9892068 5.01073602,16.8365514 L11.4492692,13.7052848 C12.0692744,13.3729103 12.3128479,12.6080884 11.9997555,11.9782419 C11.686606,11.3483953 10.9296229,11.0810767 10.2903927,11.3747724 L6.61213004,13.1650403 C10.4694252,4.83547984 19.9182679,0.673388817 28.6673446,3.45042393 C37.4164785,6.22723017 42.735844,15.0764941 41.0834694,24.1058205 C39.4310949,33.1349753 31.3223927,39.5269909 22.1568895,39.0251964 C12.9914434,38.5236879 5.62896749,31.2850299 4.9716567,22.129368 C4.92313654,21.4103771 4.30089987,20.8665852 3.58190897,20.915277 C2.86286086,20.9637971 2.31906892,21.5860338 2.36781795,22.3050819 C2.99720676,30.7908453 8.72447334,38.0406606 16.8339194,40.6176645 C24.9435371,43.1944395 33.8050455,40.5803589 39.217446,34.0144603 C44.6298466,27.4485618 45.5050975,18.2511313 41.4279168,10.7822887 L41.4084629,10.7822887 Z" id="Fill-3" stroke="#333333" fill="#333333"></path>
                    </g>
                    <path d="M23.1541847,9.14822367 C22.4351365,9.14822367 21.8522653,9.73115215 21.8522653,10.4503719 L21.8522653,20.3391001 L16.7029493,25.4884161 C16.1940026,25.9973628 16.1940026,26.822091 16.7029493,27.3307516 C17.2116099,27.8396983 18.0363953,27.8396983 18.5450559,27.3307516 L24.020052,21.8493472 C24.3003017,21.5998804 24.4594226,21.2416437 24.4563771,20.8663563 L24.4563771,10.4503719 C24.4563771,10.1050663 24.3190689,9.77383615 24.0750377,9.52974772 C23.8307204,9.28548765 23.4994902,9.14822367 23.1541847,9.14822367 Z" id="Fill-4" stroke="#3065EA" fill="#3065EA"></path>
                </g>
            </g>
        </g>
    </g>
</svg>