<?xml version="1.0" encoding="UTF-8"?>
<svg width="45px" height="46px" viewBox="0 0 45 46" version="1.1" xmlns="http://www.w3.org/2000/svg" xmlns:xlink="http://www.w3.org/1999/xlink">
    <title>编组 9</title>
    <defs>
        <rect id="path-1" x="0" y="0" width="330" height="108" rx="8"></rect>
        <filter x="-7.6%" y="-18.5%" width="115.2%" height="146.3%" filterUnits="objectBoundingBox" id="filter-2">
            <feOffset dx="0" dy="5" in="SourceAlpha" result="shadowOffsetOuter1"></feOffset>
            <feGaussianBlur stdDeviation="7.5" in="shadowOffsetOuter1" result="shadowBlurOuter1"></feGaussianBlur>
            <feColorMatrix values="0 0 0 0 0.882352941   0 0 0 0 0.901960784   0 0 0 0 0.933333333  0 0 0 1 0" type="matrix" in="shadowBlurOuter1"></feColorMatrix>
        </filter>
    </defs>
    <g id="页面-1" stroke="none" stroke-width="1" fill="none" fill-rule="evenodd">
        <g id="超级管理员-首页" transform="translate(-457.000000, -879.000000)">
            <rect id="矩形" fill="#FFFFFF" x="0" y="0" width="750" height="1630"></rect>
            <g id="矩形备份-3" transform="translate(390.000000, 848.000000)">
                <use fill="black" fill-opacity="1" filter="url(#filter-2)" xlink:href="#path-1"></use>
                <use fill="#FFFFFF" fill-rule="evenodd" xlink:href="#path-1"></use>
            </g>
            <g id="编组-9" transform="translate(458.000000, 880.000000)">
                <path d="M23.3957733,41.1846435 L8.57742596,41.1846435 C5.36236929,41.1846435 2.74843144,38.5405411 2.74843144,35.2896892 C2.74843144,32.0388373 5.36236929,29.3947349 8.5746106,29.3947349 L23.2829177,29.3947349 C24.0411335,29.3947349 24.655766,28.7801828 24.655766,28.0219671 C24.655766,27.2637514 24.0411335,26.6491188 23.2829177,26.6491188 L8.5746106,26.6491188 C3.84939671,26.6491188 -1.0658141e-14,30.5262669 -1.0658141e-14,35.2896892 C0.00281535649,40.0535137 3.84658135,43.9302596 8.57742596,43.9302596 L23.4010823,43.9302596 C24.159298,43.9302596 24.7738501,43.3157075 24.7738501,42.5574918 C24.7738501,41.7992761 24.159298,41.1846435 23.4010823,41.1846435 M22.3302011,24.5489433 C27.5194662,24.5489433 32.1296527,21.5450384 34.0814991,16.8940695 C34.3643218,16.1974698 34.0337989,15.4031371 33.3408995,15.1121901 C32.6477587,14.8211627 31.8493236,15.1420329 31.5502523,15.8313931 C30.0319707,19.4583766 26.4074808,21.8033272 22.3302011,21.8033272 C16.8471737,21.8033272 12.3882121,17.5281682 12.3882121,12.2757587 C12.3882121,10.3757148 12.9704278,8.54163071 14.0685777,6.96832907 C15.9218867,4.32454845 19.0108958,2.74561609 22.3302011,2.74561609 C25.6470932,2.74561609 28.733287,4.32173309 30.5837002,6.96302011 C30.9679561,7.51474954 31.2947788,8.10235466 31.5502523,8.71191956 C31.8453016,9.41109324 32.6508958,9.73847898 33.3500695,9.44375137 C34.048841,9.14870201 34.3765484,8.34302742 34.0814991,7.64393419 C33.7462303,6.84960146 33.3273857,6.09299452 32.8325265,5.38690311 C30.468351,2.0125777 26.5394808,0 22.3302011,0 C18.1156929,0 14.1867422,2.01539305 11.8226472,5.39510786 C10.4020183,7.40728336 9.63945887,9.81006947 9.64010197,12.2729433 C9.64010197,19.0438757 15.3317879,24.5489433 22.3248921,24.5489433" id="Fill-1" stroke="#333333" fill="#333333"></path>
                <path d="M28.0027078,31.7507714 C26.6641307,34.0726261 26.6658879,36.932502 28.0072474,39.2527455 C29.3486068,41.5734284 31.8254358,43.0016086 34.5053724,43 C38.6461607,42.9982395 42.0017559,39.6394527 42,35.4974373 C41.9988271,31.3554218 38.6410354,27.9988322 34.5002471,28 C31.815771,27.9972209 29.3406992,29.4287701 28.0027078,31.7507714 Z" id="Fill-3" stroke="#3065EA" stroke-width="3.5"></path>
                <path d="M34.6684719,24.4845069 C33.7760871,26.0324101 33.7772586,27.938994 34.6714982,29.485823 C35.5657379,31.0329449 37.2169572,31.9850651 39.0035816,31.9839927 C41.7641071,31.982819 44.0011706,29.7436278 44,26.9822842 C43.9992181,24.2209406 41.7606903,21.9832142 39.0001647,21.9839927 C37.210514,21.98214 35.5604662,22.9365061 34.6684719,24.4845069 Z" id="Fill-3备份" fill="#7FA3FF"></path>
            </g>
        </g>
    </g>
</svg>