<?xml version="1.0" encoding="UTF-8"?>
<svg width="54px" height="54px" viewBox="0 0 54 54" version="1.1" xmlns="http://www.w3.org/2000/svg" xmlns:xlink="http://www.w3.org/1999/xlink">
    <title>编组备份 4</title>
    <defs>
        <path d="M35.1,0 C40.5945,0 43.3044,0 46.2,0.9 C49.40865,2.08215 51.91785,4.59135 53.1,7.8 C54,10.69515 54,13.40595 54,18.9 L54,35.1 C54,40.5945 54,43.3044 53.1,46.2 C51.91785,49.40865 49.40865,51.91785 46.2,53.1 C43.3044,54 40.5945,54 35.1,54 L18.9,54 C13.4055,54 10.69515,54 7.8,53.1 C4.59135,51.91785 2.08215,49.40865 0.9,46.2 C0,43.3044 0,40.5945 0,35.1 L0,18.9 C0,13.40595 0,10.69515 0.9,7.8 C2.08215,4.59135 4.59135,2.08215 7.8,0.9 C10.69515,0 13.4055,0 18.9,0 L35.1,0 Z" id="path-1"></path>
        <polygon id="path-3" points="5.00388235 4.05745648 48.9411933 4.05745648 48.9411933 50.3294765 5.00388235 50.3294765"></polygon>
    </defs>
    <g id="控件" stroke="none" stroke-width="1" fill="none" fill-rule="evenodd">
        <g id="小程序icon" transform="translate(-41.000000, -191.000000)">
            <g id="编组备份-4" transform="translate(41.000000, 191.000000)">
                <mask id="mask-2" fill="white">
                    <use xlink:href="#path-1"></use>
                </mask>
                <g id="Icon-Shape-"></g>
                <path d="M27.2198118,25 C22.1371,25 18,29.1368412 18,34.2198118 L18,40.6307412 C18,41.6816941 18.8598765,42.5413765 19.9105706,42.5413765 C20.9615235,42.5413765 21.8216588,41.6816941 21.8216588,40.6307412 L21.8216588,34.2198118 C21.8216588,31.2483882 24.2393294,28.8216588 27.2198118,28.8216588 C30.2003588,28.8216588 32.6179647,31.2390706 32.6179647,34.2198118 L32.6179647,40.6307412 C32.6179647,41.6816941 33.4775824,42.5413765 34.5290529,42.5413765 C35.5797471,42.5413765 36.4396235,41.6816941 36.4396235,40.6307412 L36.4396235,34.2198118 C36.4396235,29.1373588 32.3123588,25 27.2198118,25 Z" id="Fill-3" fill="#C7CAD0" mask="url(#mask-2)"></path>
                <mask id="mask-4" fill="white">
                    <use xlink:href="#path-3"></use>
                </mask>
                <g id="Clip-2"></g>
                <path d="M45.128,41.2623059 C45.128,44.1475412 42.7773647,46.4981765 39.8918706,46.4981765 L14.0573353,46.4981765 C11.1718412,46.4981765 8.82120588,44.1483176 8.82120588,41.2623059 L8.82120588,20.6914 C8.82120588,20.3479412 8.98368235,20.0135412 9.26075294,19.8032471 L23.3054235,9.12172941 C24.3662765,8.30934706 25.6366471,7.87911765 26.9747,7.87911765 C28.3123,7.87911765 29.5831882,8.30934706 30.6437176,9.12172941 L44.6884529,19.8032471 C44.9654588,20.0135412 45.128,20.3479412 45.128,20.6914 L45.128,41.2623059 Z M46.9910765,16.7552118 L32.9559824,6.07369412 C31.2372,4.76443529 29.1358118,4.05597059 26.9752176,4.05745648 C24.8636706,4.05745648 22.7615059,4.72625882 20.9942588,6.07369412 L6.94900588,16.7552118 C5.71629412,17.6917 5,19.1437647 5,20.6914 L5,41.2716882 C5,46.2783059 9.06055294,50.3294765 14.0577882,50.3294765 L39.8832647,50.3294765 C44.8898824,50.3294765 48.9411933,46.2684706 48.9411933,41.2716882 L48.9411933,20.6914 C48.9497235,19.1437647 48.2235294,17.6911824 46.9910765,16.7552118 Z" id="Fill-1" fill="#C7CAD0" mask="url(#mask-4)"></path>
            </g>
        </g>
    </g>
</svg>