<?xml version="1.0" encoding="UTF-8"?>
<svg width="54px" height="54px" viewBox="0 0 54 54" version="1.1" xmlns="http://www.w3.org/2000/svg" xmlns:xlink="http://www.w3.org/1999/xlink">
    <title>导航栏-首页</title>
    <defs>
        <path d="M35.1,0 C40.5945,0 43.3044,0 46.2,0.9 C49.40865,2.08215 51.91785,4.59135 53.1,7.8 C54,10.69515 54,13.40595 54,18.9 L54,35.1 C54,40.5945 54,43.3044 53.1,46.2 C51.91785,49.40865 49.40865,51.91785 46.2,53.1 C43.3044,54 40.5945,54 35.1,54 L18.9,54 C13.4055,54 10.69515,54 7.8,53.1 C4.59135,51.91785 2.08215,49.40865 0.9,46.2 C0,43.3044 0,40.5945 0,35.1 L0,18.9 C0,13.40595 0,10.69515 0.9,7.8 C2.08215,4.59135 4.59135,2.08215 7.8,0.9 C10.69515,0 13.4055,0 18.9,0 L35.1,0 Z" id="path-1"></path>
        <polygon id="path-3" points="1.00388235 0.0574564836 44.9411933 0.0574564836 44.9411933 46.3294765 1.00388235 46.3294765"></polygon>
    </defs>
    <g id="控件" stroke="none" stroke-width="1" fill="none" fill-rule="evenodd">
        <g id="小程序icon" transform="translate(-41.000000, -37.000000)">
            <g id="导航栏-首页" transform="translate(41.000000, 37.000000)">
                <mask id="mask-2" fill="white">
                    <use xlink:href="#path-1"></use>
                </mask>
                <g id="Icon-Shape-"></g>
                <g id="编组备份" mask="url(#mask-2)">
                    <g transform="translate(5.000000, 4.000000)">
                        <path d="M0,11.4999187 C0,17.8511654 5.14870848,23 11.5,23 C17.8512915,23 23,17.8511654 23,11.4999187 C23,5.14867209 17.8512915,0 11.5,0 C5.14870848,0 0,5.14867209 0,11.4999187 Z" id="Fill-1" stroke="none" fill="#7FA3FF" fill-rule="evenodd"></path>
                        <path d="M23.2198118,21 C18.1371,21 14,25.1368412 14,30.2198118 L14,36.6307412 C14,37.6816941 14.8598765,38.5413765 15.9105706,38.5413765 C16.9615235,38.5413765 17.8216588,37.6816941 17.8216588,36.6307412 L17.8216588,30.2198118 C17.8216588,27.2483882 20.2393294,24.8216588 23.2198118,24.8216588 C26.2003588,24.8216588 28.6179647,27.2390706 28.6179647,30.2198118 L28.6179647,36.6307412 C28.6179647,37.6816941 29.4775824,38.5413765 30.5290529,38.5413765 C31.5797471,38.5413765 32.4396235,37.6816941 32.4396235,36.6307412 L32.4396235,30.2198118 C32.4396235,25.1373588 28.3123588,21 23.2198118,21 Z" id="Fill-3" stroke="none" fill="#3065EA" fill-rule="evenodd"></path>
                        <mask id="mask-4" fill="white">
                            <use xlink:href="#path-3"></use>
                        </mask>
                        <g id="Clip-2" stroke="none" fill="none"></g>
                        <path d="M41.128,37.2623059 C41.128,40.1475412 38.7773647,42.4981765 35.8918706,42.4981765 L10.0573353,42.4981765 C7.17184118,42.4981765 4.82120588,40.1483176 4.82120588,37.2623059 L4.82120588,16.6914 C4.82120588,16.3479412 4.98368235,16.0135412 5.26075294,15.8032471 L19.3054235,5.12172941 C20.3662765,4.30934706 21.6366471,3.87911765 22.9747,3.87911765 C24.3123,3.87911765 25.5831882,4.30934706 26.6437176,5.12172941 L40.6884529,15.8032471 C40.9654588,16.0135412 41.128,16.3479412 41.128,16.6914 L41.128,37.2623059 Z M42.9910765,12.7552118 L28.9559824,2.07369412 C27.2372,0.764435294 25.1358118,0.0559705882 22.9752176,0.0574564836 C20.8636706,0.0574564836 18.7615059,0.726258824 16.9942588,2.07369412 L2.94900588,12.7552118 C1.71629412,13.6917 1,15.1437647 1,16.6914 L1,37.2716882 C1,42.2783059 5.06055294,46.3294765 10.0577882,46.3294765 L35.8832647,46.3294765 C40.8898824,46.3294765 44.9411933,42.2684706 44.9411933,37.2716882 L44.9411933,16.6914 C44.9497235,15.1437647 44.2235294,13.6911824 42.9910765,12.7552118 Z" id="Fill-1" stroke="none" fill="#002FA7" fill-rule="evenodd" mask="url(#mask-4)"></path>
                    </g>
                </g>
            </g>
        </g>
    </g>
</svg>