<?xml version="1.0" encoding="UTF-8"?>
<svg width="54px" height="54px" viewBox="0 0 54 54" version="1.1" xmlns="http://www.w3.org/2000/svg" xmlns:xlink="http://www.w3.org/1999/xlink">
    <title>导航栏-会议</title>
    <defs>
        <path d="M35.1,0 C40.5945,0 43.3044,0 46.2,0.9 C49.40865,2.08215 51.91785,4.59135 53.1,7.8 C54,10.69515 54,13.40595 54,18.9 L54,35.1 C54,40.5945 54,43.3044 53.1,46.2 C51.91785,49.40865 49.40865,51.91785 46.2,53.1 C43.3044,54 40.5945,54 35.1,54 L18.9,54 C13.4055,54 10.69515,54 7.8,53.1 C4.59135,51.91785 2.08215,49.40865 0.9,46.2 C0,43.3044 0,40.5945 0,35.1 L0,18.9 C0,13.40595 0,10.69515 0.9,7.8 C2.08215,4.59135 4.59135,2.08215 7.8,0.9 C10.69515,0 13.4055,0 18.9,0 L35.1,0 Z" id="path-1"></path>
    </defs>
    <g id="控件" stroke="none" stroke-width="1" fill="none" fill-rule="evenodd">
        <g id="小程序icon" transform="translate(-135.000000, -37.000000)">
            <g id="导航栏-会议" transform="translate(135.000000, 37.000000)">
                <mask id="mask-2" fill="white">
                    <use xlink:href="#path-1"></use>
                </mask>
                <g id="Icon-Shape-"></g>
                <g id="编组-5" mask="url(#mask-2)">
                    <g transform="translate(6.000000, 4.000000)">
                        <g id="编组" stroke-width="1" fill="none" transform="translate(19.000000, 0.000000)">
                            <path d="M0,11.4999187 C0,17.8511654 5.14870848,23 11.5,23 C17.8512915,23 23,17.8511654 23,11.4999187 C23,5.14867209 17.8512915,0 11.5,0 C5.14870848,0 0,5.14867209 0,11.4999187 Z" id="Fill-1" fill="#7FA3FF"></path>
                        </g>
                        <path d="M4.55308745,32.7661063 L38.2554232,32.7661063 L38.2554232,8.42538311 L4.55308745,8.42538311 L4.55308745,32.7661063 Z M4.55308745,4.68085106 L38.2554232,4.68085106 C40.3149163,4.68085106 42,6.36591458 42,8.42538311 L42,32.7661063 C42,34.8255146 40.3149163,36.5106383 38.2554232,36.5106383 L4.55308745,36.5106383 C2.49365453,36.5106383 0.808510638,34.8255146 0.808510638,32.7661063 L0.808510638,8.42538311 C0.808510638,6.36591458 2.49365453,4.68085106 4.55308745,4.68085106 Z" id="Fill-3" fill="#002FA7"></path>
                        <path d="M8.29772552,42.1276596 L34.5110261,42.1276596 C35.6345711,42.1276596 36.3829787,42.8768005 36.3829787,44.0003614 C36.3829787,45.123862 35.6340892,45.8723404 34.5110261,45.8723404 L8.29772552,45.8723404 C7.17399977,45.8723404 6.42553191,45.1233802 6.42553191,44.0003614 C6.42553191,42.876138 7.17399977,42.1276596 8.29772552,42.1276596 Z" id="Fill-4" fill="#002FA7"></path>
                        <path d="M8.29787234,16.8510943 C8.29787234,15.7275256 9.04721391,14.9787234 10.1702215,14.9787234 C11.2937162,14.9787234 12.042327,15.7280128 12.042327,16.8510943 C12.042327,22.0938058 16.1617265,26.2129487 21.4043771,26.2129487 C26.6470277,26.2129487 30.7661227,22.0938058 30.7661227,16.8510943 C30.7661227,15.7275256 31.5149771,14.9787234 32.6382283,14.9787234 C33.7617839,14.9787234 34.5106383,15.7280128 34.5106383,16.8510943 C34.5106383,24.1531336 28.7063317,29.9574468 21.4043771,29.9574468 C14.1024226,29.9574468 8.29787234,24.1531336 8.29787234,16.8510943 Z" id="Fill-5" fill="#3065EA"></path>
                    </g>
                </g>
            </g>
        </g>
    </g>
</svg>