<?xml version="1.0" encoding="UTF-8"?>
<svg width="54px" height="54px" viewBox="0 0 54 54" version="1.1" xmlns="http://www.w3.org/2000/svg" xmlns:xlink="http://www.w3.org/1999/xlink">
    <title>编组 5备份 5</title>
    <defs>
        <path d="M35.1,0 C40.5945,0 43.3044,0 46.2,0.9 C49.40865,2.08215 51.91785,4.59135 53.1,7.8 C54,10.69515 54,13.40595 54,18.9 L54,35.1 C54,40.5945 54,43.3044 53.1,46.2 C51.91785,49.40865 49.40865,51.91785 46.2,53.1 C43.3044,54 40.5945,54 35.1,54 L18.9,54 C13.4055,54 10.69515,54 7.8,53.1 C4.59135,51.91785 2.08215,49.40865 0.9,46.2 C0,43.3044 0,40.5945 0,35.1 L0,18.9 C0,13.40595 0,10.69515 0.9,7.8 C2.08215,4.59135 4.59135,2.08215 7.8,0.9 C10.69515,0 13.4055,0 18.9,0 L35.1,0 Z" id="path-1"></path>
    </defs>
    <g id="控件" stroke="none" stroke-width="1" fill="none" fill-rule="evenodd">
        <g id="小程序icon" transform="translate(-135.000000, -191.000000)">
            <g id="编组-5备份-5" transform="translate(135.000000, 191.000000)">
                <mask id="mask-2" fill="white">
                    <use xlink:href="#path-1"></use>
                </mask>
                <g id="Icon-Shape-"></g>
                <path d="M10.5530875,34.7661063 L44.2554232,34.7661063 L44.2554232,10.4253831 L10.5530875,10.4253831 L10.5530875,34.7661063 Z M10.5530875,6.68085106 L44.2554232,6.68085106 C46.3149163,6.68085106 48,8.36591458 48,10.4253831 L48,34.7661063 C48,36.8255146 46.3149163,38.5106383 44.2554232,38.5106383 L10.5530875,38.5106383 C8.49365453,38.5106383 6.80851064,36.8255146 6.80851064,34.7661063 L6.80851064,10.4253831 C6.80851064,8.36591458 8.49365453,6.68085106 10.5530875,6.68085106 Z" id="Fill-3" fill="#C7CAD0" mask="url(#mask-2)"></path>
                <path d="M14.2977255,44.1276596 L40.5110261,44.1276596 C41.6345711,44.1276596 42.3829787,44.8768005 42.3829787,46.0003614 C42.3829787,47.123862 41.6340892,47.8723404 40.5110261,47.8723404 L14.2977255,47.8723404 C13.1739998,47.8723404 12.4255319,47.1233802 12.4255319,46.0003614 C12.4255319,44.876138 13.1739998,44.1276596 14.2977255,44.1276596 Z" id="Fill-4" fill="#C7CAD0" mask="url(#mask-2)"></path>
                <path d="M14.2978723,18.8510943 C14.2978723,17.7275256 15.0472139,16.9787234 16.1702215,16.9787234 C17.2937162,16.9787234 18.042327,17.7280128 18.042327,18.8510943 C18.042327,24.0938058 22.1617265,28.2129487 27.4043771,28.2129487 C32.6470277,28.2129487 36.7661227,24.0938058 36.7661227,18.8510943 C36.7661227,17.7275256 37.5149771,16.9787234 38.6382283,16.9787234 C39.7617839,16.9787234 40.5106383,17.7280128 40.5106383,18.8510943 C40.5106383,26.1531336 34.7063317,31.9574468 27.4043771,31.9574468 C20.1024226,31.9574468 14.2978723,26.1531336 14.2978723,18.8510943 Z" id="Fill-5" fill="#C7CAD0" mask="url(#mask-2)"></path>
            </g>
        </g>
    </g>
</svg>