<?xml version="1.0" encoding="UTF-8"?>
<svg width="54px" height="54px" viewBox="0 0 54 54" version="1.1" xmlns="http://www.w3.org/2000/svg" xmlns:xlink="http://www.w3.org/1999/xlink">
    <title>编组 6备份 4</title>
    <defs>
        <path d="M35.1,0 C40.5945,0 43.3044,0 46.2,0.9 C49.40865,2.08215 51.91785,4.59135 53.1,7.8 C54,10.69515 54,13.40595 54,18.9 L54,35.1 C54,40.5945 54,43.3044 53.1,46.2 C51.91785,49.40865 49.40865,51.91785 46.2,53.1 C43.3044,54 40.5945,54 35.1,54 L18.9,54 C13.4055,54 10.69515,54 7.8,53.1 C4.59135,51.91785 2.08215,49.40865 0.9,46.2 C0,43.3044 0,40.5945 0,35.1 L0,18.9 C0,13.40595 0,10.69515 0.9,7.8 C2.08215,4.59135 4.59135,2.08215 7.8,0.9 C10.69515,0 13.4055,0 18.9,0 L35.1,0 Z" id="path-1"></path>
    </defs>
    <g id="控件" stroke="none" stroke-width="1" fill="none" fill-rule="evenodd">
        <g id="小程序icon" transform="translate(-229.000000, -191.000000)">
            <g id="编组-6备份-4" transform="translate(229.000000, 191.000000)">
                <mask id="mask-2" fill="white">
                    <use xlink:href="#path-1"></use>
                </mask>
                <g id="Icon-Shape-"></g>
                <path d="M27,7.83561644 C35.9130726,7.83561644 43.1643836,15.0869274 43.1643836,24 C43.1643836,32.9130726 35.9130726,40.1643836 27,40.1643836 C18.0869274,40.1643836 10.8356164,32.9130726 10.8356164,24 C10.8356164,15.0869274 18.0869274,7.83561644 27,7.83561644 L27,7.83561644 Z M27,4 C15.9543424,4 7,12.9543424 7,24 C7,35.0456576 15.9543424,44 27,44 C38.0456576,44 47,35.0456576 47,24 C47,12.9543424 38.0456576,4 27,4 Z" id="Fill-1" fill="#C7CAD0" mask="url(#mask-2)"></path>
                <path d="M32.9899593,35 L20.0101108,35 C18.8998948,35 18,34.1044151 18,32.9998605 C18,31.8955849 18.8998948,31 20.0101108,31 L32.9899593,31 C34.1001753,31 35,31.8955849 35,32.9998605 C35,34.1044151 34.1001753,35 32.9899593,35 Z" id="路径" fill="#C7CAD0" mask="url(#mask-2)"></path>
                <path d="M45,46 L9,46 C7.89537143,46 7,46.8953683 7,48 C7,49.1046317 7.89537143,50 9,50 L45,50 C46.1046286,50 47,49.1046317 47,48 C47,46.8953683 46.1046286,46 45,46 Z" id="路径" fill="#C7CAD0" mask="url(#mask-2)"></path>
            </g>
        </g>
    </g>
</svg>