<?xml version="1.0" encoding="UTF-8"?>
<svg width="54px" height="54px" viewBox="0 0 54 54" version="1.1" xmlns="http://www.w3.org/2000/svg" xmlns:xlink="http://www.w3.org/1999/xlink">
    <title>导航栏-我的</title>
    <defs>
        <path d="M35.1,0 C40.5945,0 43.3044,0 46.2,0.9 C49.40865,2.08215 51.91785,4.59135 53.1,7.8 C54,10.69515 54,13.40595 54,18.9 L54,35.1 C54,40.5945 54,43.3044 53.1,46.2 C51.91785,49.40865 49.40865,51.91785 46.2,53.1 C43.3044,54 40.5945,54 35.1,54 L18.9,54 C13.4055,54 10.69515,54 7.8,53.1 C4.59135,51.91785 2.08215,49.40865 0.9,46.2 C0,43.3044 0,40.5945 0,35.1 L0,18.9 C0,13.40595 0,10.69515 0.9,7.8 C2.08215,4.59135 4.59135,2.08215 7.8,0.9 C10.69515,0 13.4055,0 18.9,0 L35.1,0 Z" id="path-1"></path>
    </defs>
    <g id="控件" stroke="none" stroke-width="1" fill="none" fill-rule="evenodd">
        <g id="小程序icon" transform="translate(-229.000000, -37.000000)">
            <g id="导航栏-我的" transform="translate(229.000000, 37.000000)">
                <mask id="mask-2" fill="white">
                    <use xlink:href="#path-1"></use>
                </mask>
                <g id="Icon-Shape-"></g>
                <g id="编组-6" mask="url(#mask-2)">
                    <g transform="translate(7.000000, 4.000000)">
                        <path d="M18,11.4999187 C18,17.8511654 23.1487085,23 29.5,23 C35.8512915,23 41,17.8511654 41,11.4999187 C41,5.14867209 35.8512915,0 29.5,0 C23.1487085,0 18,5.14867209 18,11.4999187 Z" id="Fill-1备份-2" fill="#7FA3FF"></path>
                        <path d="M20,3.83561644 C28.9130726,3.83561644 36.1643836,11.0869274 36.1643836,20 C36.1643836,28.9130726 28.9130726,36.1643836 20,36.1643836 C11.0869274,36.1643836 3.83561644,28.9130726 3.83561644,20 C3.83561644,11.0869274 11.0869274,3.83561644 20,3.83561644 L20,3.83561644 Z M20,0 C8.95434236,0 0,8.95434236 0,20 C0,31.0456576 8.95434236,40 20,40 C31.0456576,40 40,31.0456576 40,20 C40,8.95434236 31.0456576,0 20,0 Z" id="Fill-1" fill="#002FA7"></path>
                        <path d="M25.9899593,31 L13.0101108,31 C11.8998948,31 11,30.1044151 11,28.9998605 C11,27.8955849 11.8998948,27 13.0101108,27 L25.9899593,27 C27.1001753,27 28,27.8955849 28,28.9998605 C28,30.1044151 27.1001753,31 25.9899593,31 Z" id="路径" fill="#3065EA"></path>
                        <path d="M38,42 L2,42 C0.895371426,42 0,42.8953683 0,44 C0,45.1046317 0.895371426,46 2,46 L38,46 C39.1046286,46 40,45.1046317 40,44 C40,42.8953683 39.1046286,42 38,42 Z" id="路径" fill="#002FA7"></path>
                    </g>
                </g>
            </g>
        </g>
    </g>
</svg>